# AST/ASF file generated using VICON BodyLanguage
# -----------------------------------------------
:version 1.10
:name VICON
:units
  mass 1.0
  length 0.45
  angle deg
:documentation
   .ast/.asf automatically generated from VICON data using
   VICON BodyBuilder and BodyLanguage model FoxedUp or BRILLIANT.MOD
:root
   order TX TY TZ RX RY RZ
   axis XYZ
   position 0 0 0  
   orientation 0 0 0 
:bonedata
  begin
     id 1 
     name lhipjoint
     direction 0.707368 -0.647095 0.284426 
     length 2.60678 
     axis 0 0 0  XYZ
  end
  begin
     id 2 
     name lfemur
     direction 0.34202 -0.939693 0  
     length 6.63812  
     axis 0 0 20  XYZ
    dof rx ry rz
    limits (-160.0 20.0)
           (-70.0 70.0)
           (-60.0 70.0)
  end
  begin
     id 3 
     name ltibia
     direction 0.34202 -0.939693 0   
     length 7.51178   
     axis 0 0 20   XYZ
    dof rx
    limits (-10.0 170.0)
  end
  begin
     id 4 
     name lfoot
     direction 0.121251 -0.333133 0.935051   
     length 1.83716   
     axis -90 7.62852e-016 20   XYZ
    dof rx rz
    limits (-45.0 90.0)
           (-70.0 20.0)
  end
  begin
     id 5 
     name ltoes
     direction 1.53611e-011 -4.21962e-011 1   
     length 0.916133   
     axis -90 7.62852e-016 20   XYZ
    dof rx
    limits (-90.0 20.0)
  end
  begin
     id 6 
     name rhipjoint
     direction -0.692419 -0.660507 0.290321   
     length 2.55385  
     axis 0 0 0  XYZ 
  end
  begin
     id 7 
     name rfemur
     direction -0.34202 -0.939693 0   
     length 7.29079   
     axis 0 0 -20   XYZ
    dof rx ry rz
    limits (-160.0 20.0)
           (-70.0 70.0)
           (-70.0 60.0)
  end
  begin
     id 8 
     name rtibia
     direction -0.34202 -0.939693 0   
     length 7.47143   
     axis 0 0 -20   XYZ
    dof rx
    limits (-10.0 170.0)
 end
 begin
     id 9 
     name rfoot
     direction -0.119907 -0.329441 0.936532   
     length 1.79439  
     axis -90 -7.62852e-016 -20   XYZ
    dof rx rz
    limits (-45.0 90.0)
           (-20.0 70.0)
  end
  begin
     id 10 
     name rtoes
     direction -1.53571e-011 -4.21961e-011 1   
     length 0.896039   
     axis -90 -7.62852e-016 -20   XYZ
    dof rx
    limits (-90.0 20.0)
  end
  begin
     id 11 
     name lowerback
     direction 0.0367721 0.992912 -0.113016   
     length 1.73542   
     axis 0 0 0   XYZ
    dof rx ry rz
    limits (-20.0 45.0)
           (-30.0 30.0)
           (-30.0 30.0)
  end
  begin
     id 12 
     name upperback
     direction -0.000314626 0.990678 0.136227   
     length 1.7514   
     axis 0 0 0   XYZ
    dof rx ry rz
    limits (-20.0 45.0)
           (-30.0 30.0)
           (-30.0 30.0)
  end
  begin
     id 13 
     name thorax
     direction -0.0226159 0.981151 0.191917   
     length 1.71471   
     axis 0 0 0   XYZ
    dof rx ry rz
    limits (-20.0 45.0)
           (-30.0 30.0)
           (-30.0 30.0)
  end
  begin
     id 14 
     name lowerneck
     direction 0.0219333 0.998071 0.0580739   
     length 1.65882   
     axis 0 0 0   XYZ
    dof rx ry rz
    limits (-20.0 45.0)
           (-30.0 30.0)
           (-30.0 30.0)
  end
  begin
     id 15 
     name upperneck
     direction 0.0384529 0.980058 -0.194957   
     length 1.6612   
     axis 0 0 0   XYZ
    dof rx ry rz
    limits (-20.0 45.0)
           (-30.0 30.0)
           (-30.0 30.0)
  end
  begin
     id 16
     name head
     direction 0.00592123 0.997421 -0.0715234  
     length 1.68077  
     axis 0 0 0   XYZ
    dof rx ry rz
    limits (-20.0 45.0)
           (-30.0 30.0)
           (-30.0 30.0)
  end
  begin
     id 17 
     name lclavicle
     direction 0.904803 0.417826 0.0821728  
     length 3.42227  
     axis 0 0 0   XYZ
    dof ry rz
    limits (-20.0 10.0)
           (0.0 20.0)
  end
  begin
     id 18 
     name lhumerus
     direction 1 -4.48965e-011 -2.68786e-027   
     length 5.11878   
     axis -180 -30 -90   XYZ
    dof rx ry rz
    limits (-60.0 90.0)
           (-90.0 90.0)
           (-90.0 90.0)
  end
  begin
     id 19
     name lradius
     direction 1 -4.48965e-011 2.61168e-028   
     length 3.59971   
     axis -180 -30 -90   XYZ
    dof rx
    limits (-10.0 170.0)
  end
  begin
     id 20
     name lwrist
     direction 1 -4.48965e-011 1.58672e-027   
     length 1.79985   
     axis -1.65735e-015 90 90   XYZ
    dof ry
    limits (-180.0 0.0)
 end
  begin
     id 21 
     name lhand
     direction 1 -4.48942e-011 3.17344e-027   
     length 0.62877   
     axis -2.02492e-015 90 90   XYZ
    dof rx rz
    limits (-90.0 90.0)
           (-45.0 45.0)
  end
  begin
     id 22 
     name lfingers
     direction 1 -4.49011e-011 6.34687e-027   
     length 0.506931   
     axis -4.04985e-015 90 90   XYZ
    dof rx
    limits (0.0 90.0)
  end
  begin
     id 23
     name lthumb
     direction 0.707107 -6.34982e-011 0.707107   
     length 0.727854   
     axis -90 45 2.85299e-015   XYZ
    dof rx rz
    limits (-45.0 45.0)
           (-45.0 45.0)
  end
  begin
     id 24 
     name rclavicle
     direction -0.945647 0.32488 0.0143075   
     length 3.52737  
     axis 0 0 0   XYZ 
    dof ry rz
    limits (-10.0 20.0)
           (-20.0 0.0)
  end
  begin
     id 25 
     name rhumerus
     direction -1 -4.48962e-011 1.92182e-027  
     length 5.4902   
     axis -180 30 90   XYZ
    dof rx ry rz
    limits (-90.0 60.0)
           (-90.0 90.0)
           (-90.0 90.0)
  end
  begin
     id 26 
     name rradius
     direction -1 -4.48967e-011 -5.97193e-028   
     length 3.20659   
     axis -180 30 90   XYZ
    dof rx
    limits (-10.0 170.0)
  end
  begin
     id 27 
     name rwrist
     direction -1 -4.48964e-011 1.58672e-027   
     length 1.6033   
     axis -1.65735e-015 -90 -90   XYZ
    dof ry
    limits (-180.0 0.0)
  end
  begin
     id 28
     name rhand
     direction -1 -4.49006e-011 3.17344e-027   
     length 0.691885   
     axis -2.02492e-015 -90 -90   XYZ
    dof rx rz
    limits (-90.0 90.0)
           (-45.0 45.0)
  end
  begin
     id 29
     name rfingers
     direction -1 -4.48908e-011 6.34687e-027   
     length 0.557815   
     axis -4.04985e-015 -90 -90   XYZ
    dof rx
    limits (0.0 90.0)
  end
  begin
     id 30
     name rthumb
     direction -0.707107 -6.34999e-011 0.707107   
     length 0.800915   
     axis -90 -45 -2.85299e-015   XYZ
    dof rx rz
    limits (-45.0 45.0)
           (-45.0 45.0)
  end
:hierarchy
  begin
    root lhipjoint rhipjoint lowerback
    lhipjoint lfemur
    lfemur ltibia
    ltibia lfoot
    lfoot ltoes
    rhipjoint rfemur
    rfemur rtibia
    rtibia rfoot
    rfoot rtoes
    lowerback upperback
    upperback thorax
    thorax lowerneck lclavicle rclavicle
    lowerneck upperneck
    upperneck head
    lclavicle lhumerus
    lhumerus lradius
    lradius lwrist
    lwrist lhand lthumb
    lhand lfingers
    rclavicle rhumerus
    rhumerus rradius
    rradius rwrist
    rwrist rhand rthumb
    rhand rfingers
  end

#!OML:ASF I:\Actors\actors\Patient Classification 1\Patient 1\Session 1\Subject1.ASF
:FULLY-SPECIFIED
:DEGREES
1
root -0.397377 17.4776 8.07772 7.85587 -3.55344 -6.37099
lowerback 1.01136 0.603025 2.36343
upperback -9.6552 1.0888 1.35526
thorax -10.8285 0.392647 0.0207299
lowerneck 0.26914 -13.4788 -13.4039
upperneck 18.4194 -20.1362 11.3861
head 8.18564 -9.9107 4.09079
rclavicle 3.08116e-015 2.78299e-014
rhumerus -46.2651 -17.1394 -73.6131
rradius 26.5384
rwrist 39.2952
rhand 6.65158 -32.584
rfingers 7.12502
rthumb 31.944 -59.8012
lclavicle 3.08116e-015 2.78299e-014
lhumerus -43.2857 11.4776 81.7912
lradius 21.8789
lwrist -27.4266
lhand -11.9004 -6.32679
lfingers 7.12502
lthumb 14.153 23.1711
rfemur -2.23921 25.8712 23.1922
rtibia 1.66641
rfoot -10.3541 -22.0176
rtoes -0.571124
lfemur 7.93603 -42.2634 -17.8002
ltibia -4.46236
lfoot -22.8286 52.6287
ltoes 15.445
2
root -0.398665 17.4779 8.07736 7.81896 -3.52336 -6.33706
lowerback 1.03061 0.613449 2.32541
upperback -9.66777 1.09916 1.32891
thorax -10.8542 0.399396 0.0124659
lowerneck 0.33491 -13.4821 -13.3917
upperneck 18.4098 -20.1519 11.4045
head 8.17374 -9.91951 4.0982
rclavicle -1.10325e-014 2.34566e-014
rhumerus -46.3289 -17.1551 -73.6252
rradius 26.546
rwrist 39.1884
rhand 6.53802 -32.5881
rfingers 7.12502
rthumb 31.8358 -59.8268
lclavicle -1.10325e-014 2.34566e-014
lhumerus -43.2921 11.4793 81.7758
lradius 21.8307
lwrist -27.488
lhand -12.0513 -6.49699
lfingers 7.12502
lthumb 14.0076 23.011
rfemur -2.16933 25.8877 23.1854
rtibia 1.57834
rfoot -10.2557 -22.0916
rtoes -0.608821
lfemur 7.99955 -42.2986 -17.8684
ltibia -4.49094
lfoot -22.4776 52.6997
ltoes 14.6977
3
root -0.399454 17.4779 8.07705 7.78605 -3.51709 -6.28352
lowerback 1.03678 0.622786 2.2739
upperback -9.67773 1.10691 1.30748
thorax -10.8693 0.406429 0.0173741
lowerneck 0.365973 -13.4847 -13.4073
upperneck 18.4067 -20.1659 11.4399
head 8.17472 -9.92634 4.11215
rclavicle 6.4605e-015 8.34896e-015
rhumerus -46.3916 -17.2132 -73.5849
rradius 26.5584
rwrist 39.1625
rhand 6.54199 -32.5654
rfingers 7.12502
rthumb 31.8396 -59.8034
lclavicle 6.4605e-015 8.34896e-015
lhumerus -43.2838 11.4784 81.7851
lradius 21.8065
lwrist -27.55
lhand -12.0345 -6.53568
lfingers 7.12502
lthumb 14.0237 22.9712
rfemur -2.11787 25.9188 23.1511
rtibia 1.50459
rfoot -10.1621 -22.2128
rtoes 0.0709876
lfemur 8.0636 -42.3883 -17.9775
ltibia -4.50402
lfoot -22.5504 52.7707
ltoes 14.7307
4
root -0.399938 17.4774 8.07647 7.77626 -3.53337 -6.28499
lowerback 1.02989 0.628979 2.26932
upperback -9.69737 1.11519 1.30747
thorax -10.8875 0.410619 0.019194
lowerneck 0.300242 -13.5129 -13.3981
upperneck 18.4453 -20.209 11.4552
head 8.20581 -9.9415 4.10397
rclavicle 2.68359e-015 1.51076e-014
rhumerus -46.4426 -17.2653 -73.5439
rradius 26.5698
rwrist 39.2176
rhand 6.66577 -32.5273
rfingers 7.12502
rthumb 31.9575 -59.7418
lclavicle 2.68359e-015 1.51076e-014
lhumerus -43.2728 11.5128 81.7724
lradius 21.7495
lwrist -27.6166
lhand -12.038 -6.46228
lfingers 7.12502
lthumb 14.0204 23.0449
rfemur -2.12078 25.9361 23.1592
rtibia 1.51146
rfoot -10.161 -22.2444
rtoes 0.750623
lfemur 8.07072 -42.3722 -17.9822
ltibia -4.49453
lfoot -22.6818 52.7434
ltoes 14.908
5
root -0.403274 17.4801 8.0834 7.89707 -3.54047 -6.13224
lowerback 0.739624 0.625282 2.04365
upperback -9.72615 1.08257 1.27411
thorax -10.7466 0.414196 0.115592
lowerneck 0.366503 -13.521 -13.2775
upperneck 18.5614 -20.2054 11.2525
head 8.19763 -9.94742 4.027
rclavicle 9.83984e-015 -3.97569e-016
rhumerus -46.3875 -17.2147 -73.5984
rradius 26.4487
rwrist 39.1513
rhand 6.75118 -32.4728
rfingers 7.12502
rthumb 32.0388 -59.6709
lclavicle 9.83984e-015 -3.97569e-016
lhumerus -43.2556 11.6296 81.6895
lradius 21.6565
lwrist -27.7603
lhand -12.1137 -6.44264
lfingers 7.12502
lthumb 13.9475 23.0695
rfemur -2.2255 26.0129 22.9345
rtibia 1.46574
rfoot -10.1781 -22.3169
rtoes 0.802388
lfemur 7.89729 -42.3763 -18.0447
ltibia -4.46776
lfoot -22.699 52.7188
ltoes 14.9852
6
root -0.408459 17.4857 8.0974 8.12698 -3.53841 -5.74253
lowerback 0.194562 0.608501 1.54536
upperback -9.75504 1.00508 1.18408
thorax -10.4549 0.417503 0.309946
lowerneck 0.457484 -13.5171 -13.2073
upperneck 18.539 -20.2018 11.2123
head 8.16166 -9.94877 4.01294
rclavicle 1.94809e-014 -2.38542e-015
rhumerus -46.2338 -17.0869 -73.7239
rradius 26.2087
rwrist 38.963
rhand 6.78293 -32.4497
rfingers 7.12502
rthumb 32.069 -59.6418
lclavicle 1.94809e-014 -2.38542e-015
lhumerus -43.2431 11.6648 81.6695
lradius 21.6421
lwrist -27.7703
lhand -12.1091 -6.45437
lfingers 7.12502
lthumb 13.9519 23.0575
rfemur -2.39669 26.1259 22.3829
rtibia 1.30416
rfoot -10.1631 -22.4723
rtoes 0.758761
lfemur 7.62242 -42.5535 -18.334
ltibia -4.45087
lfoot -22.6727 52.8627
ltoes 14.9026
7
root -0.411272 17.4886 8.10402 8.23387 -3.53726 -5.53669
lowerback -0.0530176 0.592879 1.29304
upperback -9.78317 0.959432 1.13521
thorax -10.34 0.41516 0.404966
lowerneck 0.501308 -13.4994 -13.231
upperneck 18.5536 -20.1948 11.2673
head 8.16641 -9.94532 4.03803
rclavicle 4.37326e-015 -1.31198e-014
rhumerus -46.1858 -17.0139 -73.8001
rradius 26.132
rwrist 38.8428
rhand 6.86155 -32.5116
rfingers 7.12502
rthumb 32.1439 -59.6886
lclavicle 4.37326e-015 -1.31198e-014
lhumerus -43.2583 11.5929 81.7235
lradius 21.6755
lwrist -27.6241
lhand -12.1145 -6.47459
lfingers 7.12502
lthumb 13.9467 23.0377
rfemur -2.46775 26.1982 22.0981
rtibia 1.21179
rfoot -10.1698 -22.5609
rtoes 0.916151
lfemur 7.51105 -42.7068 -18.5207
ltibia -4.4315
lfoot -22.8615 52.9852
ltoes 14.938
8
root -0.411499 17.4885 8.10323 8.23018 -3.54025 -5.53628
lowerback -0.0413303 0.586374 1.28608
upperback -9.8067 0.951652 1.14422
thorax -10.3741 0.412229 0.419112
lowerneck 0.497397 -13.4758 -13.2811
upperneck 18.6408 -20.176 11.291
head 8.20187 -9.93667 4.05346
rclavicle 6.26172e-015 2.62396e-014
rhumerus -46.2096 -16.9269 -73.8546
rradius 26.1974
rwrist 38.7062
rhand 6.92298 -32.5992
rfingers 7.12502
rthumb 32.2024 -59.7644
lclavicle 6.26172e-015 2.62396e-014
lhumerus -43.2844 11.5915 81.7429
lradius 21.6686
lwrist -27.586
lhand -12.1124 -6.58741
lfingers 7.12502
lthumb 13.9487 22.9247
rfemur -2.4789 26.2028 22.0957
rtibia 1.22969
rfoot -10.2066 -22.5548
rtoes 1.07436
lfemur 7.50567 -42.7287 -18.532
ltibia -4.3941
lfoot -23.0137 52.9914
ltoes 15.035
9
root -0.4109 17.4881 8.10224 8.23082 -3.55614 -5.52277
lowerback -0.0486661 0.593422 1.27665
upperback -9.82485 0.961262 1.14991
thorax -10.3906 0.417967 0.4297
lowerneck 0.570132 -13.4475 -13.3391
upperneck 18.5961 -20.1567 11.3892
head 8.18835 -9.92881 4.1019
rclavicle 6.65929e-015 -7.95139e-016
rhumerus -46.2278 -16.8762 -73.8709
rradius 26.2405
rwrist 38.631
rhand 6.92096 -32.6485
rfingers 7.12502
rthumb 32.2005 -59.814
lclavicle 6.65929e-015 -7.95139e-016
lhumerus -43.3157 11.6928 81.7113
lradius 21.6772
lwrist -27.7359
lhand -11.9933 -6.6318
lfingers 7.12502
lthumb 14.0635 22.8724
rfemur -2.51137 26.1485 22.0637
rtibia 1.25186
rfoot -10.2044 -22.5031
rtoes 0.994316
lfemur 7.49862 -42.7122 -18.5471
ltibia -4.39055
lfoot -22.9028 52.9979
ltoes 14.9452
10
root -0.410652 17.4881 8.1013 8.24022 -3.56696 -5.51316
lowerback -0.0575342 0.604415 1.2906
upperback -9.85275 0.976243 1.1386
thorax -10.4165 0.423318 0.408634
lowerneck 0.730325 -13.4291 -13.386
upperneck 18.4364 -20.1587 11.5431
head 8.12862 -9.93268 4.17222
rclavicle -6.85807e-015 2.5842e-014
rhumerus -46.2816 -16.9255 -73.8367
rradius 26.2714
rwrist 38.7076
rhand 6.95864 -32.6426
rfingers 7.12502
rthumb 32.2363 -59.8009
lclavicle -6.85807e-015 2.5842e-014
lhumerus -43.3528 11.7511 81.679
lradius 21.695
lwrist -27.8767
lhand -11.9007 -6.53427
lfingers 7.12502
lthumb 14.1527 22.9637
rfemur -2.53335 26.1141 22.0396
rtibia 1.24881
rfoot -10.1574 -22.4804
rtoes 0.739112
lfemur 7.4844 -42.7263 -18.5455
ltibia -4.40136
lfoot -22.8254 53.0177
ltoes 14.9625
11
root -0.410497 17.4885 8.10024 8.24631 -3.56385 -5.50405
lowerback -0.0774982 0.599246 1.28362
upperback -9.86949 0.968395 1.13555
thorax -10.4236 0.419862 0.410197
lowerneck 0.851459 -13.4103 -13.4003
upperneck 18.3342 -20.1506 11.631
head 8.08302 -9.93144 4.21449
rclavicle -1.55052e-014 3.93594e-014
rhumerus -46.2759 -16.865 -73.8875
rradius 26.2906
rwrist 38.6658
rhand 6.99369 -32.6274
rfingers 7.12502
rthumb 32.2697 -59.7789
lclavicle -1.55052e-014 3.93594e-014
lhumerus -43.3662 11.5713 81.823
lradius 21.8162
lwrist -27.8668
lhand -11.7068 -5.8806
lfingers 7.12502
lthumb 14.3395 23.6042
rfemur -2.5374 26.1029 22.0237
rtibia 1.23608
rfoot -10.1328 -22.478
rtoes 0.647795
lfemur 7.4428 -42.6847 -18.5214
ltibia -4.39448
lfoot -22.761 52.9742
ltoes 14.958
